<svg width="28" height="28" viewBox="0 0 28 28" fill="none" xmlns="http://www.w3.org/2000/svg">
  <path fill-rule="evenodd" clip-rule="evenodd" d="M19.9803 14.5055C19.9803 14.0531 19.6135 13.6863 19.161 13.6863H8.83893C8.38649 13.6863 8.01971 14.0531 8.01971 14.5055V15.3565C8.01971 15.7009 8.2989 15.9801 8.6433 15.9801V15.9801C8.95142 15.9801 9.21335 16.2051 9.25977 16.5097L10.3713 23.8039C10.4322 24.2041 10.7763 24.4997 11.1811 24.4997H16.7368C17.1416 24.4997 17.4857 24.2041 17.5467 23.8039L18.6524 16.5472C18.7021 16.221 18.9826 15.9801 19.3125 15.9801V15.9801C19.6813 15.9801 19.9803 15.6811 19.9803 15.3124V14.5055Z" fill="white"/>
  <path d="M14 8.27926C15.2899 8.27926 16.3347 7.23446 16.3347 5.9445C16.3347 4.65455 15.2899 3.60974 14 3.60974C12.71 3.60974 11.6652 4.65455 11.6652 5.9445C11.6652 7.23446 12.71 8.27926 14 8.27926ZM14 9.44664C12.4415 9.44664 9.33044 10.2288 9.33044 11.7814V12.3651C9.33044 12.6861 9.59311 12.9488 9.91414 12.9488H18.0858C18.4068 12.9488 18.6695 12.6861 18.6695 12.3651V11.7814C18.6695 10.2288 15.5584 9.44664 14 9.44664Z" fill="white"/>
</svg>