<svg width="24" height="24" viewBox="0 0 24 24" fill="none" xmlns="http://www.w3.org/2000/svg">
  <rect width="24" height="24" rx="12" fill="#333333"/>
  <path d="M19.1667 17.3333H18.3333V5.66667C18.3333 4.75 17.5833 4 16.6667 4H8.33333C7.41667 4 6.66667 4.75 6.66667 5.66667V17.3333H5.83333C5.375 17.3333 5 17.7083 5 18.1667C5 18.625 5.375 19 5.83333 19H19.1667C19.625 19 20 18.625 20 18.1667C20 17.7083 19.625 17.3333 19.1667 17.3333ZM14.1667 12.3333C13.7083 12.3333 13.3333 11.9583 13.3333 11.5C13.3333 11.0417 13.7083 10.6667 14.1667 10.6667C14.625 10.6667 15 11.0417 15 11.5C15 11.9583 14.625 12.3333 14.1667 12.3333Z" fill="#FAFAFA"/>
</svg>