<svg fill="none" height="28" viewBox="0 0 28 28" width="28" xmlns="http://www.w3.org/2000/svg">
  <path d="M23.3333 21.6667H22.1667V5.33333C22.1667 4.05 21.1167 3 19.8333 3H8.16667C6.88333 3 5.83333 4.05 5.83333 5.33333V21.6667H4.66667C4.025 21.6667 3.5 22.1917 3.5 22.8333C3.5 23.475 4.025 24 4.66667 24H23.3333C23.975 24 24.5 23.475 24.5 22.8333C24.5 22.1917 23.975 21.6667 23.3333 21.6667ZM16.3333 14.6667C15.6917 14.6667 15.1667 14.1417 15.1667 13.5C15.1667 12.8583 15.6917 12.3333 16.3333 12.3333C16.975 12.3333 17.5 12.8583 17.5 13.5C17.5 14.1417 16.975 14.6667 16.3333 14.6667Z" fill="#FAFAFA"/>
</svg>