<svg width="28" height="28" viewBox="0 0 28 28" fill="none" xmlns="http://www.w3.org/2000/svg">
  <path d="M3.09106 16.9963C2.91423 16.4327 3.33522 15.8594 3.92593 15.8594H23.9647C24.5554 15.8594 24.9764 16.4327 24.7996 16.9963L23.5986 20.8244C23.4841 21.1892 23.1461 21.4375 22.7637 21.4375H5.12692C4.74456 21.4375 4.40649 21.1892 4.29204 20.8244L3.09106 16.9963Z" fill="white"/>
  <path d="M3.71875 11.1562C3.71875 6.94531 5.03125 3.77344 8.69531 3.77344C9.40975 3.77344 10.0564 3.8774 10.6335 4.04731C13.2346 4.81309 13.9453 7.83163 13.9453 10.5431V14.1094C13.9453 12.6328 13.0594 9.67969 10.6094 9.67969C8.15938 9.67969 7.4375 11.8672 7.38281 12.9609" stroke="white" stroke-width="1.85938" stroke-linecap="round"/>
  <path d="M24.2266 11.1562C24.2266 6.94531 22.9141 3.77344 19.25 3.77344C18.5356 3.77344 17.8889 3.8774 17.3118 4.04731C14.7107 4.81309 14 7.83163 14 10.5431V14.1094C14 12.6328 14.8859 9.67969 17.3359 9.67969C19.7859 9.67969 20.5078 11.8672 20.5625 12.9609" stroke="white" stroke-width="1.85938" stroke-linecap="round"/>
  <rect x="2.73438" y="23.1875" width="22.3125" height="1.75" rx="0.875" fill="white"/>
</svg>