<svg fill="none" height="28" viewBox="0 0 28 28" width="28" xmlns="http://www.w3.org/2000/svg">
  <rect fill="white" height="12" rx="2" transform="matrix(0.859406 0.511293 0 1 4 7)" width="12"/>
  <path d="M14.7093 3.01036L22.6686 7.60566C23.1327 7.87361 23.4186 8.3688 23.4186 8.9047V18.0953C23.4186 18.6312 23.1327 19.1264 22.6686 19.3943L14.7093 23.9896C14.2452 24.2576 13.6734 24.2576 13.2093 23.9896L5.25 19.3943C4.7859 19.1264 4.5 18.6312 4.5 18.0953V8.9047C4.5 8.3688 4.7859 7.87361 5.25 7.60566L13.2093 3.01036C13.6734 2.74241 14.2452 2.74241 14.7093 3.01036Z" stroke="white"/>
  <path d="M15.753 3.85559L5.79373 9.60559" stroke="white"/>
  <path d="M18.3869 5.01404L8.42764 10.764" stroke="white"/>
  <path d="M20.8888 6.59509L10.9295 12.3451" stroke="white"/>
  <path d="M23.1001 8.25L13.1408 14" stroke="white"/>
  <path d="M23.5227 11.125L13.5634 16.875" stroke="white"/>
  <path d="M23.5227 13.6698L13.5634 19.4198" stroke="white"/>
  <path d="M23.5227 16.5448L13.5634 22.2948" stroke="white"/>
</svg>