<svg fill="none" height="28" viewBox="0 0 28 28" width="28" xmlns="http://www.w3.org/2000/svg">
  <rect fill="#FAFAFA" height="6.34375" rx="0.4375" width="15.3125" x="6.36174" y="18.1562"/>
  <path clip-rule="evenodd" d="M4.83049 3.28125C4.34724 3.28125 3.95549 3.673 3.95549 4.15625V18.1562C3.95549 18.6395 4.34724 19.0312 4.83049 19.0312H23.2055C23.6887 19.0312 24.0805 18.6395 24.0805 18.1562V4.15625C24.0805 3.673 23.6887 3.28125 23.2055 3.28125H4.83049ZM6.78125 4.81251C6.298 4.81251 5.90625 5.20426 5.90625 5.68751V16.625C5.90625 17.1083 6.298 17.5 6.78125 17.5H21.2188C21.702 17.5 22.0938 17.1083 22.0938 16.625V5.68751C22.0938 5.20426 21.702 4.81251 21.2188 4.81251H6.78125Z" fill="#FAFAFA" fill-rule="evenodd"/>
</svg>