<svg width="28" height="28" viewBox="0 0 28 28" fill="none" xmlns="http://www.w3.org/2000/svg">
  <path d="M6.19041 20L8.17841 12.72L10.1664 20H12.3504L15.0804 10.2H12.9104L11.1464 16.976L9.31241 10.2H7.07241L5.25241 16.99L3.47441 10.2H1.27641L4.00641 20H6.19041ZM21.1209 20.224C23.2069 20.224 24.8449 19.174 25.5869 17.41L23.8369 16.528C23.3889 17.69 22.4089 18.348 21.1209 18.348C19.3149 18.348 18.0549 17.004 18.0549 15.1C18.0549 13.196 19.3149 11.852 21.1209 11.852C22.4089 11.852 23.3889 12.51 23.8369 13.672L25.5869 12.79C24.8449 11.026 23.2069 9.976 21.1209 9.976C18.1109 9.976 16.0109 12.16 16.0109 15.1C16.0109 18.04 18.1109 20.224 21.1209 20.224Z" fill="white"/>
</svg>