<svg fill="none" height="28" viewBox="0 0 28 28" width="28" xmlns="http://www.w3.org/2000/svg">
  <path d="M22.1667 9.33346H5.83333C3.89667 9.33346 2.33333 10.8968 2.33333 12.8335V17.5001C2.33333 18.7835 3.38333 19.8335 4.66667 19.8335H7V22.1668C7 23.4501 8.05 24.5001 9.33333 24.5001H18.6667C19.95 24.5001 21 23.4501 21 22.1668V19.8335H23.3333C24.6167 19.8335 25.6667 18.7835 25.6667 17.5001V12.8335C25.6667 10.8968 24.1033 9.33346 22.1667 9.33346ZM17.5 22.1668H10.5C9.85833 22.1668 9.33333 21.6418 9.33333 21.0001V16.3335H18.6667V21.0001C18.6667 21.6418 18.1417 22.1668 17.5 22.1668ZM22.1667 14.0001C21.525 14.0001 21 13.4751 21 12.8335C21 12.1918 21.525 11.6668 22.1667 11.6668C22.8083 11.6668 23.3333 12.1918 23.3333 12.8335C23.3333 13.4751 22.8083 14.0001 22.1667 14.0001ZM19.8333 3.50012H8.16667C7.525 3.50012 7 4.02512 7 4.66679V7.00012C7 7.64179 7.525 8.16679 8.16667 8.16679H19.8333C20.475 8.16679 21 7.64179 21 7.00012V4.66679C21 4.02512 20.475 3.50012 19.8333 3.50012Z" fill="#FAFAFA"/>
</svg>